HIERARCHY
ROOT Hips
{
 OFFSET 0.000000 0.000000 0.000000
 CHANNELS 6 Xposition Yposition Zposition Yrotation Xrotation Zrotation
 JOINT Chest
 {
  OFFSET 0.000000 9.588913 -0.003946
  CHANNELS 3 Yrotation Xrotation Zrotation
  JOINT Chest2
  {
   OFFSET 0.000000 9.541882 0.008053
   CHANNELS 3 Yrotation Xrotation Zrotation
   JOINT Chest3
   {
    OFFSET 0.000000 9.501360 0.000000
    CHANNELS 3 Yrotation Xrotation Zrotation
    JOINT Chest4
    {
     OFFSET 0.000000 9.491660 0.000000
     CHANNELS 3 Yrotation Xrotation Zrotation
     JOINT Neck
     {
      OFFSET 0.000000 14.331917 0.000000
      CHANNELS 3 Yrotation Xrotation Zrotation
      JOINT Head
      {
       OFFSET 0.000000 8.884799 0.017034
       CHANNELS 3 Yrotation Xrotation Zrotation
       End Site
       {
        OFFSET 0.000000 16.896195 0.008993
       }
      }
     }
     JOINT RightCollar
     {
      OFFSET -2.923010 9.499495 0.000000
      CHANNELS 3 Yrotation Xrotation Zrotation
      JOINT RightShoulder
      {
       OFFSET -13.795216 0.000000 0.000000
       CHANNELS 3 Yrotation Xrotation Zrotation
       JOINT RightElbow
       {
        OFFSET -30.272209 0.000000 0.000000
        CHANNELS 3 Yrotation Xrotation Zrotation
        JOINT RightWrist
        {
         OFFSET -24.478199 0.000000 0.000000
         CHANNELS 3 Yrotation Xrotation Zrotation
         End Site
         {
          OFFSET -18.090752 0.000000 0.000000
         }
        }
       }
      }
     }
     JOINT LeftCollar
     {
      OFFSET 2.923010 9.499495 0.000000
      CHANNELS 3 Yrotation Xrotation Zrotation
      JOINT LeftShoulder
      {
       OFFSET 13.795216 0.000000 0.000000
       CHANNELS 3 Yrotation Xrotation Zrotation
       JOINT LeftElbow
       {
        OFFSET 30.272209 0.000000 0.000000
        CHANNELS 3 Yrotation Xrotation Zrotation
        JOINT LeftWrist
        {
         OFFSET 24.478199 0.000000 0.000000
         CHANNELS 3 Yrotation Xrotation Zrotation
         End Site
         {
          OFFSET 18.090752 0.000000 0.000000
         }
        }
       }
      }
     }
    }
   }
  }
 }
 JOINT RightHip
 {
  OFFSET -7.826875 0.019532 0.001973
  CHANNELS 3 Yrotation Xrotation Zrotation
  JOINT RightKnee
  {
   OFFSET 0.000000 -40.546152 -0.001885
   CHANNELS 3 Yrotation Xrotation Zrotation
   JOINT RightAnkle
   {
    OFFSET 0.000000 -39.417092 -0.003189
    CHANNELS 3 Yrotation Xrotation Zrotation
    JOINT RightToe
    {
     OFFSET 0.000000 -7.579396 17.243563
     CHANNELS 3 Yrotation Xrotation Zrotation
     End Site
     {
      OFFSET 0.000000 -1.500329 6.694466
     }
    }
   }
  }
 }
 JOINT LeftHip
 {
  OFFSET 7.826875 0.019532 0.001973
  CHANNELS 3 Yrotation Xrotation Zrotation
  JOINT LeftKnee
  {
   OFFSET 0.000000 -40.546152 -0.001885
   CHANNELS 3 Yrotation Xrotation Zrotation
   JOINT LeftAnkle
   {
    OFFSET 0.000000 -39.417092 -0.003189
    CHANNELS 3 Yrotation Xrotation Zrotation
    JOINT LeftToe
    {
     OFFSET 0.000000 -7.579396 17.243563
     CHANNELS 3 Yrotation Xrotation Zrotation
     End Site
     {
      OFFSET 0.000000 -1.500329 6.694466
     }
    }
   }
  }
 }
}
MOTION
Frames: 8
Frame Time: 0.008333
0.000000 87.345680 0.000000 0.000000 -5.767889 0.000000 0.000000 11.653876 0.000000 0.000000 -5.885988 0.000000 0.000000 -0.000000 0.000000 0.000000 -0.000000 0.000000 0.000000 12.528808 0.000000 0.000000 0.711711 0.000000 0.000000 -0.000000 0.000000 0.000000 -0.000000 0.000000 2.309063 -0.000000 0.000000 -2.309063 -0.000000 -0.000000 0.000000 -0.000000 0.000000 0.000000 0.000000 0.000000 -2.309063 0.000000 0.000000 2.309063 -0.000000 0.000000 0.000000 8.520374 0.000000 0.000000 1.905768 0.000000 -0.000000 -4.658254 0.000000 0.000000 -0.000000 0.000000 0.000000 8.520374 0.000000 0.000000 1.905768 0.000000 -0.000000 -4.658254 0.000000 0.000000 -0.000000 0.000000
5.863732 89.611263 13.731890 -40.417276 -8.397275 0.651024 3.803680 4.202731 0.699872 2.137043 2.415722 0.271277 2.673684 3.017937 0.353254 2.137042 2.415721 0.271277 7.912825 24.864639 1.439780 8.401080 1.580778 -0.224016 -4.366623 2.736156 -3.000253 0.927817 -3.678625 91.222266 1.228028 -10.472460 -1.200330 -2.517084 -18.467106 3.266679 -6.422668 1.826673 -2.019363 2.569711 -5.656374 -89.573805 -1.738800 1.004466 0.170852 -3.987808 -0.457713 5.888593 -13.991467 9.392757 -4.690357 18.236539 -0.438874 -0.903613 18.236141 -2.555984 -0.346114 0.031881 -0.620425 -0.013167 9.456072 -2.328294 5.670667 9.149642 23.923059 10.751570 11.872690 -8.807764 -10.903379 0.803004 0.502205 1.055225
5.863255 89.610119 13.764374 -40.528867 -8.307706 0.849776 3.768253 4.164833 0.587114 2.148295 2.412683 0.254615 2.687639 3.014227 0.332478 2.148294 2.412682 0.254615 7.932534 24.874897 1.444838 8.422638 1.595209 -0.222759 -4.385935 2.700068 -3.013122 0.950358 -3.642587 91.157942 1.231140 -10.427275 -1.177776 -2.588058 -18.447216 3.293473 -6.439349 1.848010 -1.995385 2.572842 -5.630793 -89.536234 -1.879152 1.014567 0.024943 -3.873734 -0.405375 5.742009 -14.048013 9.256864 -4.897931 18.302934 -0.419674 -0.873709 18.266665 -2.682854 -0.364378 0.034386 -0.514530 -0.004142 9.383385 -2.282938 5.201486 8.977288 23.620261 10.520512 12.062606 -8.753947 -10.891574 0.543648 0.478459 1.201360
5.850033 89.607580 13.797193 -40.644562 -8.218326 0.999648 3.741372 4.128738 0.519125 2.154518 2.406929 0.240204 2.695318 3.007114 0.314468 2.154517 2.406928 0.240204 7.955358 24.882598 1.443352 8.449222 1.606917 -0.229437 -4.398976 2.665338 -3.028472 0.974096 -3.601264 91.081692 1.252211 -10.410302 -1.136955 -2.643105 -18.433769 3.330070 -6.450387 1.865568 -1.980069 2.583210 -5.601336 -89.497779 -1.992251 1.024252 -0.106454 -3.761092 -0.351570 5.587945 -14.093835 9.135591 -5.055532 18.369565 -0.405625 -0.838124 18.311699 -2.760505 -0.389184 0.034744 -0.451741 0.002532 9.333867 -2.219670 4.781113 8.741451 23.255571 10.239312 12.105404 -8.736698 -10.961356 0.416015 0.484194 1.423794
5.824888 89.603521 13.833165 -40.769265 -8.146583 1.113070 3.728467 4.108893 0.486102 2.156262 2.399544 0.228766 2.697415 2.997950 0.300136 2.156261 2.399544 0.228766 7.979227 24.888185 1.433891 8.478825 1.616287 -0.245163 -4.407960 2.633454 -3.049123 0.996379 -3.557573 90.997476 1.290348 -10.416421 -1.084156 -2.681286 -18.426075 3.370609 -6.461208 1.880223 -1.974895 2.597416 -5.570961 -89.461608 -2.076551 1.032835 -0.217800 -3.653207 -0.296266 5.431734 -14.121634 9.043409 -5.186406 18.433315 -0.397158 -0.799589 18.399317 -2.829636 -0.413099 0.036590 -0.397604 0.007880 9.316983 -2.119186 4.405246 8.444441 22.825668 9.907571 12.054113 -8.727493 -11.091764 0.352721 0.504412 1.688986
5.793380 89.597209 13.870926 -40.886829 -8.074594 1.204886 3.713249 4.086518 0.468234 2.153873 2.390385 0.219804 2.694360 2.986557 0.288862 2.153872 2.390385 0.219805 8.004047 24.891974 1.418442 8.510883 1.623660 -0.267722 -4.412787 2.605980 -3.069563 1.014486 -3.511401 90.906862 1.345228 -10.437908 -1.024454 -2.699706 -18.421865 3.405937 -6.474970 1.894914 -1.973982 2.613606 -5.541637 -89.432543 -2.132283 1.039233 -0.304544 -3.550673 -0.237734 5.274800 -14.140454 8.966788 -5.291974 18.490882 -0.395144 -0.760026 18.459063 -2.896712 -0.442230 0.035259 -0.345177 0.011183 9.319592 -1.996949 4.054612 8.095149 22.320616 9.530789 11.924163 -8.710260 -11.253692 0.313276 0.534902 1.964803
5.756095 89.588871 13.911610 -41.008025 -8.015094 1.281402 3.705518 4.075326 0.459668 2.148260 2.379267 0.213109 2.687286 2.972704 0.280388 2.148259 2.379268 0.213109 8.028681 24.893884 1.399675 8.543468 1.628779 -0.293921 -4.417866 2.582230 -3.085744 1.028058 -3.461060 90.808866 1.414999 -10.465387 -0.961489 -2.700537 -18.419449 3.432663 -6.489477 1.910576 -1.973399 2.617202 -5.516557 -89.412328 -2.156271 1.038871 -0.359919 -3.451316 -0.182671 5.120934 -14.134338 8.918038 -5.377926 18.537856 -0.395290 -0.721953 18.482698 -2.988297 -0.477712 0.031278 -0.272569 0.013711 9.351485 -1.841873 3.723759 7.705986 21.737843 9.122028 11.765448 -8.658059 -11.427566 0.259272 0.563897 2.221828
5.719352 89.577626 13.949184 -41.102023 -7.925271 1.341188 3.675008 4.033338 0.454818 2.140213 2.366050 0.208983 2.677185 2.956212 0.275100 2.140213 2.366050 0.208984 8.052080 24.894525 1.379320 8.574997 1.632263 -0.321611 -4.425518 2.562393 -3.100138 1.032085 -3.407790 90.705349 1.497780 -10.487019 -0.898934 -2.689754 -18.419278 3.449559 -6.503174 1.926414 -1.975023 2.599446 -5.496885 -89.401872 -2.144003 1.034433 -0.377577 -3.356305 -0.140019 4.970850 -14.128296 8.843061 -5.436287 18.569215 -0.393893 -0.686787 18.500681 -3.055896 -0.514632 0.026911 -0.223738 0.016541 9.381924 -1.698735 3.400243 7.293284 21.081719 8.695633 11.554513 -8.590376 -11.621094 0.229624 0.604389 2.468724
